<?xml version="1.0" encoding="UTF-8"?>
<svg version="1.1" viewBox="0 0 250 250" xmlns="http://www.w3.org/2000/svg">
<path d="m2.9665 243.22c0-4.3031 6.7673-41.286 7.9143-43.251 0.40865-0.70012 1.4237-5.2353 2.2557-10.078 1.9408-11.297 5.519-23.435 7.6252-25.866 0.90542-1.0453 9.0304-3.5299 18.056-5.5213 27.725-6.1179 39.945-10.83 45.978-17.731 2.8755-3.2892 7.2246-6.7174 9.6645-7.618 3.8765-1.431 4.4363-2.3414 4.4363-7.2162 0-3.0683-0.88582-6.9243-1.9683-8.5691-1.0825-1.6448-2.4444-6.0606-3.0265-9.8129-0.58216-3.7523-2.2736-8.0428-3.759-9.5345-1.4853-1.4918-2.7005-3.3955-2.7005-4.2307 0-0.83512-1.4497-3.5946-3.2215-6.1322-2.748-3.9356-3.2479-6.6566-3.401-18.511-0.29577-22.902 1.5583-33.382 7.6152-43.044 8.5521-13.643 25.068-23.092 40.437-23.136 6.0056-0.017053 8.5288 0.72025 11.051 3.2288 1.9043 1.8944 6.3796 3.7718 10.725 4.4991 8.6447 1.4469 16.42 7.26 20.195 15.099 1.8978 3.941 2.5038 8.9359 2.5057 20.649 9.9e-4 8.6621 0.63122 15.862 1.434 16.387 3.8934 2.5479 0.26128 20.152-5.8465 28.338-2.2969 3.078-4.1902 6.8303-4.2074 8.3385-0.0174 1.5081-1.306 5.716-2.8636 9.351-5.1732 12.072-3.3931 24.02 3.9774 26.694 1.3734 0.49833 4.7522 3.9765 7.5084 7.7291 2.7563 3.7527 6.622 7.2085 8.5907 7.6797 1.9688 0.47131 10.798 3.8602 19.62 7.531 8.822 3.6708 16.47 6.6742 16.996 6.6742 0.52561 0 3.7466 1.8761 7.158 4.1693 6.0962 4.0978 9.2028 9.5677 9.2028 16.203 0 1.784 1.3325 5.9461 2.9608 9.2493 2.6206 5.3158 4.4042 15.51 8.0141 45.803l0.76788 6.4433h-243.69v-3.8151z" fill="#2facfa" stroke="#0068c5" stroke-width="5.9331"/>
<text transform="scale(1.3966 .71604)" x="-250.1169" y="258.42407" fill="#000000" font-family="Arial" font-size="144.84px" stroke-linecap="null" stroke-linejoin="null" stroke-width="0" text-anchor="middle" xml:space="preserve"/>
<text transform="scale(1.314 .76106)" x="-247.95993" y="271.85724" fill="#000000" font-family="Arial" font-size="131.77px" stroke-linecap="null" stroke-linejoin="null" stroke-width="0" text-anchor="middle" xml:space="preserve"/>
<text x="-363.30646" y="142.97015" fill="#000000" font-family="Arial" font-size="24px" stroke-linecap="null" stroke-linejoin="null" stroke-width="0" text-anchor="middle" xml:space="preserve"/>
</svg>
